<svg width="34" height="47" viewBox="0 0 34 47" fill="none" xmlns="http://www.w3.org/2000/svg">
<path d="M11.0172 3.77234C11.0172 3.77234 18.0433 -1.02766 19.1563 6.13756" stroke="#0396FF" stroke-width="2"/>
<path d="M18.6696 4.18967C18.6696 4.18967 19.9217 1.68532 26.0435 2.03315C26.0435 3.98097 24.2348 8.9201 21.5217 9.82445C28.1304 13.7201 33 25.2679 33 32.2244C33 40.6418 26.5304 45.1636 17.6957 45.1636C8.86087 45.1636 1 40.6418 1 32.2244C1 25.3375 5.8 13.7201 12.4783 9.82445C9.76522 8.9201 7.95652 3.98097 7.95652 2.03315C7.95652 2.03315 11.0174 4.74619 14.913 4.74619" stroke="#0396FF" stroke-width="2"/>
<path d="M12.4087 9.61584H22.6348" stroke="#0396FF" stroke-width="2"/>
<path d="M22.6349 10.5203C22.6349 10.5203 30.4262 10.3116 30.4262 14.6942" stroke="#0396FF" stroke-width="2"/>
<path d="M22.7737 9.19831C22.7737 9.19831 28.8259 9.54614 32.4432 7.25049" stroke="#0396FF" stroke-width="2"/>
<path d="M21.8 35.7025C20.826 36.8155 19.5739 37.4416 18.1826 37.4416C15.1913 37.4416 12.826 34.4503 12.826 30.6938C12.826 27.0069 15.2608 24.2242 18.1826 24.2242C19.5739 24.2242 20.7565 24.6416 21.7304 25.6851" stroke="#0396FF" stroke-width="2"/>
</svg>
