<svg width="45" height="36" viewBox="0 0 45 36" fill="none" xmlns="http://www.w3.org/2000/svg">
<path d="M18.2001 26.5001H9.6001" stroke="#1399F8" stroke-width="2" stroke-linecap="round"/>
<path d="M26.8 26.5001H23.575" stroke="#1399F8" stroke-width="2" stroke-linecap="round"/>
<path d="M1 13.75H11.75M44 13.75H20.35" stroke="#1399F8" stroke-width="2" stroke-linecap="round"/>
<path d="M44 18C44 9.98612 44 5.97919 41.4811 3.48959C38.9623 1 34.9081 1 26.8 1H18.2C10.0918 1 6.03777 1 3.51888 3.48959C1 5.97919 1 9.98612 1 18C1 26.0138 1 30.0209 3.51888 32.5103C6.03777 35 10.0918 35 18.2 35H26.8C34.9081 35 38.9623 35 41.4811 32.5103C42.8854 31.1223 43.5068 29.2627 43.7818 26.5" stroke="#1399F8" stroke-width="2" stroke-linecap="round"/>
</svg>
