<svg width="34" height="34" viewBox="0 0 34 34" fill="none" xmlns="http://www.w3.org/2000/svg">
<path d="M1.7 34H32.3C32.7509 34 33.1833 33.8209 33.5021 33.5021C33.8209 33.1833 34 32.7509 34 32.3C34 31.8491 33.8209 31.4167 33.5021 31.0979C33.1833 30.7791 32.7509 30.6 32.3 30.6H3.4V1.7C3.4 1.24913 3.22089 0.81673 2.90208 0.497918C2.58327 0.179107 2.15087 0 1.7 0C1.24913 0 0.81673 0.179107 0.497918 0.497918C0.179107 0.81673 0 1.24913 0 1.7V32.3C0 32.7509 0.179107 33.1833 0.497918 33.5021C0.81673 33.8209 1.24913 34 1.7 34Z" fill="#1399F8"/>
<path d="M8.50002 27.1999C8.75964 27.1993 9.01567 27.1392 9.24847 27.0243C9.48127 26.9094 9.68466 26.7427 9.84302 26.5369L15.912 18.6999L19.584 21.8449C19.7538 21.9914 19.9508 22.1029 20.1638 22.1729C20.3768 22.2429 20.6015 22.2701 20.825 22.2529C21.274 22.2156 21.6898 22.0016 21.981 21.6579L33.592 7.93892C33.8828 7.59401 34.0247 7.1477 33.9865 6.69817C33.9482 6.24865 33.7329 5.83273 33.388 5.54192C33.0431 5.25111 32.5968 5.10923 32.1473 5.14749C31.6977 5.18575 31.2818 5.40101 30.991 5.74592L20.485 18.1559L16.745 14.9599C16.5699 14.8107 16.3662 14.6986 16.1464 14.6304C15.9266 14.5621 15.6953 14.5393 15.4664 14.5631C15.2375 14.5869 15.0159 14.657 14.8149 14.7691C14.6138 14.8811 14.4377 15.0328 14.297 15.2149L7.12302 24.4799C6.93271 24.7336 6.81716 25.0356 6.78946 25.3515C6.76175 25.6675 6.82299 25.9849 6.96624 26.2678C7.1095 26.5508 7.32906 26.7881 7.60011 26.9528C7.87115 27.1175 8.18287 27.2031 8.50002 27.1999Z" fill="#1399F8"/>
</svg>
