<svg width="36" height="36" viewBox="0 0 36 36" fill="none" xmlns="http://www.w3.org/2000/svg">
<path d="M18 8.55556V33.1111M18 8.55556H11.3214C10.3374 8.55556 9.39365 8.15755 8.69784 7.44906C8.00202 6.7406 7.61111 5.7797 7.61111 4.77778C7.61111 3.77585 8.00202 2.81496 8.69784 2.10649C9.39365 1.39801 10.3374 1 11.3214 1C16.5159 1 18 8.55556 18 8.55556ZM18 8.55556H24.6785C25.6627 8.55556 26.6063 8.15755 27.3022 7.44906C27.9979 6.7406 28.3889 5.7797 28.3889 4.77778C28.3889 3.77585 27.9979 2.81496 27.3022 2.10649C26.6063 1.39801 25.6627 1 24.6785 1C19.4841 1 18 8.55556 18 8.55556ZM4.77778 18H31.2222V28.9556C31.2222 31.0713 31.2222 32.1293 30.8104 32.9373C30.4483 33.6481 29.8703 34.2261 29.1596 34.5882C28.3515 35 27.2935 35 25.1778 35H10.8222C8.70646 35 7.64859 35 6.84048 34.5882C6.12964 34.2261 5.55171 33.6481 5.18954 32.9373C4.77778 32.1293 4.77778 31.0713 4.77778 28.9556V18ZM4.02222 18H31.9778C33.0357 18 33.5646 18 33.9687 17.7941C34.3242 17.613 34.613 17.3242 34.7941 16.9687C35 16.5646 35 16.0357 35 14.9778V11.5778C35 10.5199 35 9.99096 34.7941 9.58691C34.613 9.23149 34.3242 8.94253 33.9687 8.76143C33.5646 8.55556 33.0357 8.55556 31.9778 8.55556H4.02222C2.96435 8.55556 2.4354 8.55556 2.03135 8.76143C1.67594 8.94253 1.38698 9.23149 1.20587 9.58691C1 9.99096 1 10.5199 1 11.5778V14.9778C1 16.0357 1 16.5646 1.20587 16.9687C1.38698 17.3242 1.67594 17.613 2.03135 17.7941C2.4354 18 2.96435 18 4.02222 18Z" stroke="#1399F8" stroke-width="2" stroke-linecap="round" stroke-linejoin="round"/>
</svg>
