<svg width="34" height="34" viewBox="0 0 34 34" fill="none" xmlns="http://www.w3.org/2000/svg">
<path d="M26.2391 0L29.1957 1.92453L7.80707 34L4.85054 32.0755L26.2391 0ZM7.4837 1.46631C9.70109 1.46631 11.5027 2.16891 12.8886 3.57412C14.3053 4.97934 15.0136 6.85805 15.0136 9.21024C15.0136 11.5624 14.3053 13.4411 12.8886 14.8464C11.5027 16.2516 9.70109 16.9542 7.4837 16.9542C5.29711 16.9542 3.49548 16.2516 2.0788 14.8464C0.692935 13.4411 0 11.5624 0 9.21024C0 6.85805 0.692935 4.97934 2.0788 3.57412C3.49548 2.16891 5.29711 1.46631 7.4837 1.46631ZM7.4837 4.30728C6.12863 4.30728 5.15852 4.7655 4.57337 5.68194C4.01902 6.59838 3.74185 7.77449 3.74185 9.21024C3.74185 10.6155 4.01902 11.7915 4.57337 12.7385C5.15852 13.655 6.12863 14.1132 7.4837 14.1132C9.97826 14.1132 11.2255 12.4788 11.2255 9.21024C11.2255 7.80503 10.9484 6.64421 10.394 5.72776C9.83967 4.78077 8.86957 4.30728 7.4837 4.30728ZM26.5163 17.6415C28.7337 17.6415 30.5353 18.3441 31.9212 19.7493C33.3071 21.1546 34 23.0333 34 25.3854C34 27.7376 33.3071 29.6163 31.9212 31.0216C30.5353 32.4268 28.7337 33.1294 26.5163 33.1294C24.2989 33.1294 22.4819 32.4268 21.0652 31.0216C19.6793 29.6163 18.9864 27.7376 18.9864 25.3854C18.9864 23.0333 19.6793 21.1546 21.0652 19.7493C22.4819 18.3441 24.2989 17.6415 26.5163 17.6415ZM26.5163 20.5283C25.1613 20.5283 24.1912 20.9865 23.606 21.903C23.0516 22.7888 22.7745 23.9497 22.7745 25.3854C22.7745 26.7907 23.0516 27.9667 23.606 28.9137C24.1912 29.8302 25.1613 30.2884 26.5163 30.2884C29.0109 30.2884 30.2582 28.654 30.2582 25.3854C30.2582 23.9802 29.981 22.8194 29.4266 21.903C28.8723 20.9865 27.9022 20.5283 26.5163 20.5283Z" fill="#1399F8"/>
</svg>
