<svg width="60" height="60" viewBox="0 0 60 60" fill="none" xmlns="http://www.w3.org/2000/svg">
<rect x="0.500488" y="0.5" width="59" height="59" rx="9.5" stroke="#1399F8"/>
<path d="M25.6596 42.8013C25.6096 42.8013 25.5596 42.8013 25.5096 42.8013C25.1596 42.7513 24.9096 42.5513 24.7096 42.2513L22.2596 37.8013L17.8096 35.3513C17.5096 35.2013 17.3096 34.9013 17.2596 34.5513C17.2096 34.2013 17.3096 33.9013 17.5596 33.6513L19.8096 31.4013C20.0596 31.1513 20.4096 31.0513 20.7596 31.1013L23.3096 31.5513L26.6596 28.2013L18.5596 24.2013C18.2596 24.0513 18.0596 23.7513 17.9596 23.4013C17.8596 23.0513 18.0096 22.7013 18.2596 22.4513L20.7596 19.9513C21.0096 19.7013 21.4096 19.6013 21.7596 19.6513L32.3596 22.4013L36.0596 18.7013C37.3596 17.4013 40.4096 16.4513 41.9596 18.0013C42.6596 18.7013 42.9096 19.8513 42.6596 21.1513C42.4596 22.2013 41.9096 23.2013 41.2596 23.8513L37.5596 27.5513L40.3096 38.1513C40.4096 38.5013 40.3096 38.9013 40.0096 39.1513L37.5096 41.6513C37.2596 41.9013 36.9096 42.0013 36.5596 41.9513C36.2096 41.9013 35.9096 41.7013 35.7596 41.3513L31.7596 33.2513L28.4096 36.6013L28.8596 39.1513C28.9096 39.5013 28.8096 39.8513 28.5596 40.1013L26.3096 42.3513C26.2096 42.7013 25.9596 42.8013 25.6596 42.8013ZM20.0596 34.1513L23.5596 36.0513C23.7596 36.1513 23.8596 36.3013 23.9596 36.4513L25.8596 39.9513L26.7096 39.1013L26.3096 36.5513C26.2596 36.2013 26.3596 35.8513 26.6096 35.6013L31.4096 30.8013C31.6596 30.5513 32.0096 30.4513 32.3596 30.5013C32.7096 30.5513 33.0096 30.7513 33.1596 31.1013L37.1596 39.2013L38.1596 38.2013L35.4096 27.6013C35.3096 27.2513 35.4096 26.8513 35.7096 26.6013L39.8096 22.5013C40.5596 21.7513 40.9596 20.0513 40.5096 19.6013C40.0596 19.1513 38.3596 19.6013 37.6096 20.3013L33.5096 24.4013C33.2596 24.6513 32.8596 24.7513 32.5096 24.7013L21.8596 21.9513L20.8596 22.9513L28.9596 26.9513C29.2596 27.1013 29.4596 27.4013 29.5596 27.7513C29.6596 28.1013 29.5096 28.4513 29.2596 28.7013L24.4596 33.5013C24.2096 33.7513 23.8596 33.8513 23.5096 33.8013L20.9596 33.3513L20.0596 34.1513Z" fill="#1399F8"/>
</svg>
