<svg width="60" height="60" viewBox="0 0 60 60" fill="none" xmlns="http://www.w3.org/2000/svg">
<rect x="0.500488" y="0.5" width="59" height="59" rx="9.5" stroke="#1399F8"/>
<path d="M51.5005 30C51.5005 22.1171 51.5005 18.1756 48.9815 15.7267C46.4628 13.2778 42.4086 13.2778 34.3005 13.2778H25.7005C17.5923 13.2778 13.5383 13.2778 11.0194 15.7267C8.50049 18.1756 8.50049 22.1171 8.50049 30C8.50049 37.8828 8.50049 41.8245 11.0194 44.2732C13.5383 46.7222 17.5923 46.7222 25.7005 46.7222H34.3005C42.4086 46.7222 46.4628 46.7222 48.9815 44.2732C50.3859 42.9079 51.0073 41.0787 51.2823 38.3611" stroke="#1399F8" stroke-linecap="round"/>
<path d="M25.7006 38.3611H17.1006" stroke="#1399F8" stroke-linecap="round"/>
<path d="M34.3004 38.3611H31.0754" stroke="#1399F8" stroke-linecap="round"/>
<path d="M8.50049 25.8195H19.2505M51.5005 25.8195H27.8505" stroke="#1399F8" stroke-linecap="round"/>
</svg>
