<svg width="60" height="60" viewBox="0 0 60 60" fill="none" xmlns="http://www.w3.org/2000/svg">
<rect x="0.500488" y="0.5" width="59" height="59" rx="9.5" stroke="#1399F8"/>
<path d="M30.0005 10C28.3374 10 26.6752 10.6313 25.4108 11.8957L11.897 25.4084C9.36832 27.9372 9.36832 32.0608 11.897 34.5896L25.4108 48.1039C27.9389 50.632 32.0621 50.632 34.5901 48.1039L48.104 34.5912C50.6327 32.0624 50.6327 27.9388 48.104 25.41L34.5917 11.8957C33.3274 10.6313 31.6636 10 30.0005 10ZM30.0005 11.592C31.2499 11.592 32.5003 12.0709 33.4584 13.0291L40.8094 20.3819H39.6745C38.3994 20.3819 37.1763 20.8883 36.2745 21.7892V21.7907L30.8505 27.2149C30.3746 27.6908 29.6257 27.6912 29.1489 27.2149L23.7249 21.7907C22.8244 20.8892 21.6016 20.3819 20.3265 20.3819H19.1901L26.5442 13.0291C27.5023 12.0709 28.751 11.592 30.0005 11.592ZM17.5871 21.9849H20.3265C21.1769 21.9849 21.9918 22.3221 22.5916 22.9225V22.9241L28.0156 28.3483C29.1049 29.4365 30.8952 29.437 31.9838 28.3483L37.4078 22.9241C38.0096 22.3229 38.8241 21.9849 39.6745 21.9849H42.4123L46.9706 26.5434C48.8869 28.4597 48.8869 31.5415 46.9706 33.4578L42.4139 38.0148H39.6745C38.8241 38.0148 38.0096 37.6767 37.4078 37.0755L31.9838 31.6513C31.4395 31.107 30.72 30.8358 30.0005 30.8357C29.2809 30.8357 28.5602 31.1072 28.0156 31.6513L22.5916 37.0755V37.0771C21.9918 37.6775 21.1769 38.0148 20.3265 38.0148H17.5887L13.0303 33.4563C11.1141 31.5399 11.1141 28.4581 13.0303 26.5418L17.5871 21.9849ZM30.0005 32.4278C30.3068 32.4278 30.6126 32.5468 30.8505 32.7847L36.2745 38.2089V38.2104C37.1763 39.1112 38.3994 39.6177 39.6745 39.6177H40.8109L33.4568 46.9705C31.5415 48.8859 28.4594 48.8859 26.5442 46.9705L19.1916 39.6177H20.3265C21.6016 39.6177 22.8244 39.1104 23.7249 38.2089L29.1489 32.7847C29.3873 32.5465 29.6942 32.4277 30.0005 32.4278Z" fill="#1399F8"/>
</svg>
