<svg width="42" height="50" viewBox="0 0 42 50" fill="none" xmlns="http://www.w3.org/2000/svg">
<path fill-rule="evenodd" clip-rule="evenodd" d="M28.5869 7.98218C30.3881 5.8697 31.6023 2.92745 31.27 0C28.6743 0.1 25.534 1.67787 23.6728 3.78784C22.0015 5.66032 20.5425 8.65224 20.9348 11.5222C23.8302 11.7397 26.7857 10.0971 28.5869 7.98218ZM35.0798 26.5625C35.1523 34.1299 41.9251 36.6472 42 36.6797C41.945 36.8572 40.9183 40.2666 38.4325 43.7915C36.2815 46.8365 34.0506 49.8691 30.5355 49.9341C27.0829 49.9966 25.9712 47.9492 22.0215 47.9492C18.0743 47.9492 16.8401 49.8688 13.5724 49.9963C10.1798 50.1188 7.5941 46.7019 5.42812 43.667C0.996227 37.4596 -2.3889 26.1252 2.15792 18.4753C4.41633 14.6779 8.451 12.2695 12.8329 12.2095C16.1631 12.147 19.3084 14.3823 21.3445 14.3823C23.3805 14.3823 27.2029 11.6948 31.2201 12.0898C32.9014 12.1573 37.6231 12.7471 40.6534 17.0496C40.4086 17.1971 35.0199 20.2376 35.0798 26.5625Z" fill="url(#paint0_linear_17_431)"/>
<defs>
<linearGradient id="paint0_linear_17_431" x1="40.7446" y1="7.5557e-07" x2="16.767" y2="57.0469" gradientUnits="userSpaceOnUse">
<stop stop-color="#ABDCFF"/>
<stop offset="1" stop-color="#0396FF"/>
</linearGradient>
</defs>
</svg>
