<svg width="95" height="19" viewBox="0 0 95 19" fill="none" xmlns="http://www.w3.org/2000/svg">
<path d="M7.03499 4.54738L7.76785 5.77288L1.38025 9.88638L10.1293 15.5579L9.31499 16.7264L0.0773926 10.6939V9.05988L7.03499 4.54738ZM9.31499 18.6549L8.08452 18.0754L16.2274 0.452881L17.4398 1.07988L9.31499 18.6549ZM26.6703 2.54288C27.4846 2.54288 28.1662 2.65055 28.7151 2.86588C29.264 3.08121 29.7857 3.39788 30.2803 3.81588L29.4027 4.88938C29.0107 4.54105 28.5945 4.29405 28.1541 4.14838C27.7199 3.99638 27.2645 3.92038 26.788 3.92038C26.1064 3.92038 25.476 4.09138 24.897 4.43338C24.318 4.76905 23.8505 5.32955 23.4946 6.11488C23.1448 6.89388 22.9699 7.95155 22.9699 9.28788C22.9699 10.5862 23.1357 11.628 23.4675 12.4134C23.8053 13.1987 24.2607 13.7655 24.8337 14.1139C25.4067 14.4622 26.0461 14.6364 26.7518 14.6364C27.4514 14.6364 28.0245 14.5255 28.4708 14.3039C28.9232 14.0822 29.3153 13.8289 29.647 13.5439L30.4613 14.6269C30.0813 15.0132 29.5867 15.3489 28.9775 15.6339C28.3683 15.9125 27.6203 16.0519 26.7337 16.0519C25.7264 16.0519 24.8126 15.7922 23.9922 15.2729C23.178 14.7535 22.5326 13.9935 22.0561 12.9929C21.5795 11.9859 21.3413 10.7509 21.3413 9.28788C21.3413 7.81855 21.5826 6.58355 22.0651 5.58288C22.5537 4.58221 23.2021 3.82538 24.0103 3.31238C24.8246 2.79938 25.7113 2.54288 26.6703 2.54288ZM36.489 5.62088C37.3877 5.62088 38.1386 5.83621 38.7418 6.26688C39.351 6.69121 39.8064 7.29288 40.108 8.07188C40.4156 8.85088 40.5694 9.76921 40.5694 10.8269C40.5694 11.8465 40.4126 12.749 40.099 13.5344C39.7853 14.3197 39.3239 14.9372 38.7147 15.3869C38.1115 15.8302 37.3636 16.0519 36.4709 16.0519C35.5782 16.0519 34.8272 15.8365 34.218 15.4059C33.6088 14.9752 33.1474 14.3704 32.8337 13.5914C32.5261 12.806 32.3723 11.8909 32.3723 10.8459C32.3723 9.81355 32.5291 8.90471 32.8428 8.11938C33.1564 7.33405 33.6179 6.72288 34.2271 6.28588C34.8423 5.84255 35.5963 5.62088 36.489 5.62088ZM36.489 6.92238C35.6686 6.92238 35.0474 7.24221 34.6252 7.88188C34.209 8.51522 34.0009 9.50321 34.0009 10.8459C34.0009 12.1632 34.2059 13.1417 34.6161 13.7814C35.0323 14.421 35.6506 14.7409 36.4709 14.7409C37.2912 14.7409 37.9064 14.421 38.3166 13.7814C38.7328 13.1417 38.9409 12.1569 38.9409 10.8269C38.9409 9.49688 38.7358 8.51522 38.3256 7.88188C37.9155 7.24221 37.3032 6.92238 36.489 6.92238ZM43.8014 15.8334V14.6079H45.2853V7.05538H43.8014V5.82988H46.4434L46.7238 8.19538C47.0918 7.37205 47.5381 6.73555 48.0629 6.28588C48.5876 5.83621 49.2813 5.61138 50.1438 5.61138C50.4093 5.61138 50.6446 5.63355 50.8496 5.67788C51.0608 5.71588 51.2749 5.76655 51.492 5.82988L51.0487 7.25488C50.8496 7.19788 50.6687 7.15672 50.5058 7.13138C50.343 7.09972 50.1559 7.08388 49.9448 7.08388C49.2149 7.08388 48.5876 7.35622 48.0629 7.90088C47.5381 8.44555 47.1189 9.26888 46.8053 10.3709V14.6079H48.7415V15.8334H43.8014ZM50.0262 9.21188V7.03638L50.18 5.82988H51.492L51.2749 9.21188H50.0262ZM61.3831 13.6484C61.3831 14.0474 61.4464 14.3387 61.5731 14.5224C61.6998 14.706 61.8958 14.8422 62.1612 14.9309L61.7902 16.0519C61.3801 15.9949 61.0212 15.8587 60.7136 15.6434C60.4059 15.4217 60.1828 15.0892 60.044 14.6459C59.7002 15.1082 59.272 15.4597 58.7593 15.7004C58.2466 15.9347 57.6796 16.0519 57.0583 16.0519C56.1053 16.0519 55.3544 15.77 54.8055 15.2064C54.2566 14.6427 53.9821 13.8954 53.9821 12.9644C53.9821 11.932 54.3651 11.1404 55.1312 10.5894C55.8972 10.0384 57.004 9.76288 58.4517 9.76288H59.854V8.92688C59.854 8.20488 59.652 7.69505 59.2478 7.39738C58.8498 7.09338 58.2948 6.94138 57.5831 6.94138C57.2694 6.94138 56.9015 6.98255 56.4793 7.06488C56.0571 7.14088 55.5986 7.27071 55.104 7.45438L54.7059 6.24788C55.291 6.01988 55.8399 5.85838 56.3526 5.76338C56.8653 5.66838 57.3539 5.62088 57.8183 5.62088C59.0066 5.62088 59.8963 5.91221 60.4874 6.49488C61.0845 7.07121 61.3831 7.85655 61.3831 8.85088V13.6484ZM57.4474 14.8359C57.9178 14.8359 58.3672 14.7124 58.7955 14.4654C59.2237 14.212 59.5766 13.8637 59.854 13.4204V10.8459H58.4788C57.4293 10.8459 56.6874 11.0359 56.2531 11.4159C55.8248 11.7959 55.6107 12.3057 55.6107 12.9454C55.6107 13.566 55.7615 14.0379 56.0631 14.3609C56.3707 14.6775 56.8321 14.8359 57.4474 14.8359ZM71.1113 1.60238L72.6313 1.80188V15.8334H71.3013L71.1565 14.5129C70.8007 15.0449 70.3905 15.4344 69.926 15.6814C69.4676 15.9284 68.9761 16.0519 68.4513 16.0519C67.6249 16.0519 66.9434 15.8334 66.4065 15.3964C65.8697 14.9594 65.4716 14.3514 65.2122 13.5724C64.9529 12.787 64.8232 11.8782 64.8232 10.8459C64.8232 9.84521 64.971 8.95222 65.2665 8.16688C65.5621 7.37521 65.9873 6.75455 66.5422 6.30488C67.1032 5.84888 67.7757 5.62088 68.5599 5.62088C69.1087 5.62088 69.5913 5.72221 70.0075 5.92488C70.4237 6.12121 70.7916 6.41255 71.1113 6.79888V1.60238ZM68.958 6.90338C68.1618 6.90338 67.5495 7.22955 67.1213 7.88188C66.693 8.53421 66.4789 9.52221 66.4789 10.8459C66.4789 11.7072 66.5664 12.4292 66.7413 13.0119C66.9162 13.5945 67.1726 14.0315 67.5103 14.3229C67.8541 14.6142 68.2734 14.7599 68.768 14.7599C69.3108 14.7599 69.7722 14.5984 70.1522 14.2754C70.5383 13.9524 70.858 13.5882 71.1113 13.1829V8.18588C70.8519 7.78055 70.5383 7.46705 70.1703 7.24538C69.8024 7.01738 69.3983 6.90338 68.958 6.90338ZM79.8895 5.62088C80.7882 5.62088 81.5392 5.83621 82.1423 6.26688C82.7516 6.69121 83.2069 7.29288 83.5085 8.07188C83.8162 8.85088 83.97 9.76921 83.97 10.8269C83.97 11.8465 83.8131 12.749 83.4995 13.5344C83.1858 14.3197 82.7244 14.9372 82.1152 15.3869C81.512 15.8302 80.7641 16.0519 79.8714 16.0519C78.9787 16.0519 78.2277 15.8365 77.6185 15.4059C77.0093 14.9752 76.5479 14.3704 76.2343 13.5914C75.9266 12.806 75.7728 11.8909 75.7728 10.8459C75.7728 9.81355 75.9297 8.90471 76.2433 8.11938C76.557 7.33405 77.0184 6.72288 77.6276 6.28588C78.2428 5.84255 78.9968 5.62088 79.8895 5.62088ZM79.8895 6.92238C79.0692 6.92238 78.4479 7.24221 78.0257 7.88188C77.6095 8.51522 77.4014 9.50321 77.4014 10.8459C77.4014 12.1632 77.6065 13.1417 78.0166 13.7814C78.4328 14.421 79.0511 14.7409 79.8714 14.7409C80.6917 14.7409 81.307 14.421 81.7171 13.7814C82.1333 13.1417 82.3414 12.1569 82.3414 10.8269C82.3414 9.49688 82.1363 8.51522 81.7262 7.88188C81.316 7.24221 80.7038 6.92238 79.8895 6.92238ZM87.6177 4.54738L94.5758 9.05988V10.6939L87.7086 15.2064L86.8853 14.0284L93.2729 9.88638L86.8853 5.75388L87.6177 4.54738Z" fill="#1399F8"/>
</svg>
