<svg width="171" height="28" viewBox="0 0 171 28" fill="none" xmlns="http://www.w3.org/2000/svg">
<path d="M13.5742 18.8613H16.8086C16.7266 20.6191 16.3691 22.1367 15.7363 23.4141C15.1152 24.6797 14.207 25.6523 13.0117 26.332C11.8281 27.0117 10.3457 27.3516 8.56445 27.3516C7.28711 27.3516 6.13281 27.0996 5.10156 26.5957C4.07031 26.0918 3.18555 25.3711 2.44727 24.4336C1.7207 23.4844 1.16406 22.3477 0.777344 21.0234C0.390625 19.6992 0.197266 18.2109 0.197266 16.5586V11.8301C0.197266 10.1895 0.390625 8.70703 0.777344 7.38281C1.17578 6.05859 1.74414 4.92773 2.48242 3.99023C3.23242 3.04102 4.14062 2.31445 5.20703 1.81055C6.28516 1.30664 7.50391 1.05469 8.86328 1.05469C10.5273 1.05469 11.9336 1.38867 13.082 2.05664C14.2422 2.71289 15.1328 3.67969 15.7539 4.95703C16.3867 6.22266 16.7383 7.77539 16.8086 9.61523H13.5742C13.4922 8.26758 13.2812 7.17188 12.9414 6.32812C12.6016 5.47266 12.0977 4.8457 11.4297 4.44727C10.7734 4.03711 9.91797 3.83203 8.86328 3.83203C7.92578 3.83203 7.11133 4.01953 6.41992 4.39453C5.74023 4.76953 5.17773 5.30859 4.73242 6.01172C4.29883 6.70312 3.9707 7.54102 3.74805 8.52539C3.53711 9.49805 3.43164 10.5879 3.43164 11.7949V16.5586C3.43164 17.6836 3.51953 18.7324 3.69531 19.7051C3.88281 20.6777 4.17578 21.5332 4.57422 22.2715C4.98438 22.998 5.51758 23.5664 6.17383 23.9766C6.83008 24.3867 7.62695 24.5918 8.56445 24.5918C9.74805 24.5918 10.6855 24.3984 11.377 24.0117C12.0684 23.625 12.5781 23.0098 12.9062 22.166C13.2461 21.3223 13.4688 20.2207 13.5742 18.8613ZM20.1133 18.4043V16.5938C20.1133 15.1172 20.3008 13.8223 20.6758 12.709C21.0508 11.584 21.5723 10.6465 22.2402 9.89648C22.9082 9.14648 23.6875 8.58398 24.5781 8.20898C25.4688 7.82227 26.4238 7.62891 27.4434 7.62891C28.4863 7.62891 29.4531 7.82227 30.3438 8.20898C31.2344 8.58398 32.0137 9.14648 32.6816 9.89648C33.3613 10.6465 33.8887 11.584 34.2637 12.709C34.6387 13.8223 34.8262 15.1172 34.8262 16.5938V18.4043C34.8262 19.8809 34.6387 21.1816 34.2637 22.3066C33.8887 23.4199 33.3672 24.3516 32.6992 25.1016C32.0312 25.8516 31.252 26.4141 30.3613 26.7891C29.4707 27.1641 28.5098 27.3516 27.4785 27.3516C26.4473 27.3516 25.4863 27.1641 24.5957 26.7891C23.7051 26.4141 22.9199 25.8516 22.2402 25.1016C21.5723 24.3516 21.0508 23.4199 20.6758 22.3066C20.3008 21.1816 20.1133 19.8809 20.1133 18.4043ZM23.2246 16.5938V18.4043C23.2246 19.4473 23.3301 20.3613 23.541 21.1465C23.752 21.9316 24.0508 22.5879 24.4375 23.1152C24.8242 23.6426 25.2754 24.041 25.791 24.3105C26.3066 24.5684 26.8691 24.6973 27.4785 24.6973C28.1816 24.6973 28.7969 24.5684 29.3242 24.3105C29.8633 24.041 30.3086 23.6426 30.6602 23.1152C31.0117 22.5879 31.2754 21.9316 31.4512 21.1465C31.627 20.3613 31.7148 19.4473 31.7148 18.4043V16.5938C31.7148 15.5508 31.6094 14.6426 31.3984 13.8691C31.1875 13.084 30.8887 12.4277 30.502 11.9004C30.1152 11.3613 29.6582 10.9629 29.1309 10.7051C28.6152 10.4355 28.0527 10.3008 27.4434 10.3008C26.8457 10.3008 26.2891 10.4355 25.7734 10.7051C25.2578 10.9629 24.8066 11.3613 24.4199 11.9004C24.0449 12.4277 23.752 13.084 23.541 13.8691C23.3301 14.6426 23.2246 15.5508 23.2246 16.5938ZM41.9453 10.9688V27H38.834V7.98047H41.8398L41.9453 10.9688ZM46.6738 7.875L46.6914 10.8984C46.4336 10.8398 46.1992 10.8047 45.9883 10.793C45.7891 10.7695 45.5547 10.7578 45.2852 10.7578C44.6992 10.7578 44.1836 10.875 43.7383 11.1094C43.3047 11.3438 42.9297 11.6719 42.6133 12.0938C42.2969 12.5156 42.0449 13.0195 41.8574 13.6055C41.6699 14.1797 41.541 14.8125 41.4707 15.5039L40.6621 16.0312C40.6621 14.8828 40.75 13.8047 40.9258 12.7969C41.1133 11.7891 41.4004 10.8984 41.7871 10.125C42.1738 9.33984 42.666 8.73047 43.2637 8.29688C43.873 7.85156 44.5996 7.62891 45.4434 7.62891C45.6309 7.62891 45.8594 7.6582 46.1289 7.7168C46.4102 7.76367 46.5918 7.81641 46.6738 7.875ZM58.416 23.748V13.4297C58.416 12.6797 58.2988 12.0762 58.0645 11.6191C57.8418 11.1621 57.502 10.8281 57.0449 10.6172C56.5996 10.4062 56.0371 10.3008 55.3574 10.3008C54.7012 10.3008 54.1328 10.4355 53.6523 10.7051C53.1836 10.9746 52.8203 11.332 52.5625 11.7773C52.3164 12.2227 52.1934 12.7148 52.1934 13.2539H49.082C49.082 12.5742 49.2285 11.9004 49.5215 11.2324C49.8262 10.5645 50.2598 9.96094 50.8223 9.42188C51.3848 8.87109 52.0586 8.4375 52.8438 8.12109C53.6406 7.79297 54.5312 7.62891 55.5156 7.62891C56.6875 7.62891 57.7246 7.82227 58.627 8.20898C59.5293 8.58398 60.2383 9.19922 60.7539 10.0547C61.2695 10.9102 61.5273 12.0469 61.5273 13.4648V22.8516C61.5273 23.4844 61.5742 24.1582 61.668 24.873C61.7734 25.5879 61.9199 26.2031 62.1074 26.7188V27H58.8906C58.7383 26.625 58.6211 26.127 58.5391 25.5059C58.457 24.873 58.416 24.2871 58.416 23.748ZM58.9082 15.4688L58.9434 17.7539H56.7812C56.043 17.7539 55.3691 17.8359 54.7598 18C54.1621 18.1641 53.6465 18.4043 53.2129 18.7207C52.7793 19.0254 52.4453 19.4062 52.2109 19.8633C51.9883 20.3203 51.877 20.8418 51.877 21.4277C51.877 22.1895 51.9824 22.7988 52.1934 23.2559C52.4043 23.7012 52.7207 24.0234 53.1426 24.2227C53.5645 24.4219 54.0977 24.5215 54.7422 24.5215C55.5273 24.5215 56.2188 24.3398 56.8164 23.9766C57.4141 23.6133 57.877 23.1738 58.2051 22.6582C58.5449 22.1426 58.7031 21.6621 58.6797 21.2168L59.3652 22.6758C59.3184 23.1328 59.166 23.6309 58.9082 24.1699C58.6621 24.6973 58.3164 25.207 57.8711 25.6992C57.4258 26.1797 56.8984 26.5781 56.2891 26.8945C55.6914 27.1992 55.0176 27.3516 54.2676 27.3516C53.166 27.3516 52.1992 27.1406 51.3672 26.7188C50.5469 26.2969 49.9082 25.6758 49.4512 24.8555C48.9941 24.0352 48.7656 23.0215 48.7656 21.8145C48.7656 20.9004 48.9238 20.0566 49.2402 19.2832C49.5566 18.5098 50.0254 17.8418 50.6465 17.2793C51.2676 16.7051 52.0469 16.2598 52.9844 15.9434C53.9336 15.627 55.0293 15.4688 56.2715 15.4688H58.9082ZM76.3281 23.3086V0H79.4219V27H76.5918L76.3281 23.3086ZM65.6934 18.4043V16.6289C65.6934 15.0586 65.8457 13.7109 66.1504 12.5859C66.4551 11.4492 66.8887 10.5176 67.4512 9.79102C68.0137 9.05273 68.6875 8.50781 69.4727 8.15625C70.2578 7.80469 71.125 7.62891 72.0742 7.62891C73.0586 7.62891 73.9023 7.82812 74.6055 8.22656C75.3203 8.625 75.918 9.20508 76.3984 9.9668C76.8789 10.7168 77.2539 11.6309 77.5234 12.709C77.8047 13.7754 77.9922 14.9824 78.0859 16.3301V18.7031C77.9805 20.0391 77.7871 21.2402 77.5059 22.3066C77.2363 23.373 76.8613 24.2812 76.3809 25.0312C75.9004 25.7812 75.3027 26.3555 74.5879 26.7539C73.873 27.1523 73.0234 27.3516 72.0391 27.3516C71.1016 27.3516 70.2461 27.1699 69.4727 26.8066C68.6992 26.4316 68.0254 25.875 67.4512 25.1367C66.8887 24.3867 66.4551 23.4551 66.1504 22.3418C65.8457 21.2168 65.6934 19.9043 65.6934 18.4043ZM68.8047 16.6289V18.4043C68.8047 19.459 68.8809 20.3789 69.0332 21.1641C69.1855 21.9375 69.4258 22.582 69.7539 23.0977C70.082 23.6016 70.498 23.9766 71.002 24.2227C71.5176 24.4688 72.1328 24.5918 72.8477 24.5918C73.7148 24.5918 74.4238 24.3809 74.9746 23.959C75.5254 23.5371 75.9648 22.9805 76.293 22.2891C76.6328 21.5859 76.9023 20.8301 77.1016 20.0215V15.0293C76.9844 14.4316 76.8145 13.8574 76.5918 13.3066C76.3691 12.7441 76.0879 12.2461 75.748 11.8125C75.4199 11.3672 75.0156 11.0156 74.5352 10.7578C74.0664 10.5 73.5156 10.3711 72.8828 10.3711C72.168 10.3711 71.5469 10.5 71.0195 10.7578C70.5039 11.0156 70.082 11.4023 69.7539 11.918C69.4375 12.4336 69.1973 13.084 69.0332 13.8691C68.8809 14.6543 68.8047 15.5742 68.8047 16.6289ZM83.5703 18.4043V16.5938C83.5703 15.1172 83.7578 13.8223 84.1328 12.709C84.5078 11.584 85.0293 10.6465 85.6973 9.89648C86.3652 9.14648 87.1445 8.58398 88.0352 8.20898C88.9258 7.82227 89.8809 7.62891 90.9004 7.62891C91.9434 7.62891 92.9102 7.82227 93.8008 8.20898C94.6914 8.58398 95.4707 9.14648 96.1387 9.89648C96.8184 10.6465 97.3457 11.584 97.7207 12.709C98.0957 13.8223 98.2832 15.1172 98.2832 16.5938V18.4043C98.2832 19.8809 98.0957 21.1816 97.7207 22.3066C97.3457 23.4199 96.8242 24.3516 96.1562 25.1016C95.4883 25.8516 94.709 26.4141 93.8184 26.7891C92.9277 27.1641 91.9668 27.3516 90.9355 27.3516C89.9043 27.3516 88.9434 27.1641 88.0527 26.7891C87.1621 26.4141 86.377 25.8516 85.6973 25.1016C85.0293 24.3516 84.5078 23.4199 84.1328 22.3066C83.7578 21.1816 83.5703 19.8809 83.5703 18.4043ZM86.6816 16.5938V18.4043C86.6816 19.4473 86.7871 20.3613 86.998 21.1465C87.209 21.9316 87.5078 22.5879 87.8945 23.1152C88.2812 23.6426 88.7324 24.041 89.248 24.3105C89.7637 24.5684 90.3262 24.6973 90.9355 24.6973C91.6387 24.6973 92.2539 24.5684 92.7812 24.3105C93.3203 24.041 93.7656 23.6426 94.1172 23.1152C94.4688 22.5879 94.7324 21.9316 94.9082 21.1465C95.084 20.3613 95.1719 19.4473 95.1719 18.4043V16.5938C95.1719 15.5508 95.0664 14.6426 94.8555 13.8691C94.6445 13.084 94.3457 12.4277 93.959 11.9004C93.5723 11.3613 93.1152 10.9629 92.5879 10.7051C92.0723 10.4355 91.5098 10.3008 90.9004 10.3008C90.3027 10.3008 89.7461 10.4355 89.2305 10.7051C88.7148 10.9629 88.2637 11.3613 87.877 11.9004C87.502 12.4277 87.209 13.084 86.998 13.8691C86.7871 14.6426 86.6816 15.5508 86.6816 16.5938ZM110.465 15.0293H105.262L105.227 12.3047H110.061C110.787 12.3047 111.432 12.1406 111.994 11.8125C112.557 11.4844 112.996 11.0156 113.312 10.4062C113.641 9.78516 113.805 9.04688 113.805 8.19141C113.805 7.25391 113.664 6.49219 113.383 5.90625C113.113 5.30859 112.697 4.875 112.135 4.60547C111.584 4.32422 110.881 4.18359 110.025 4.18359H105.947V27H102.713V1.40625H110.025C111.127 1.40625 112.111 1.54102 112.979 1.81055C113.846 2.06836 114.578 2.47852 115.176 3.04102C115.785 3.5918 116.248 4.29492 116.564 5.15039C116.881 6.00586 117.039 7.03125 117.039 8.22656C117.039 9.28125 116.799 10.2363 116.318 11.0918C115.85 11.9355 115.193 12.627 114.35 13.166C113.506 13.7051 112.533 14.0508 111.432 14.2031L110.465 15.0293ZM110.342 27H103.926L105.807 24.2402H110.342C111.186 24.2402 111.9 24.0527 112.486 23.6777C113.072 23.3027 113.518 22.7754 113.822 22.0957C114.139 21.4043 114.297 20.5898 114.297 19.6523C114.297 18.7031 114.168 17.8828 113.91 17.1914C113.652 16.5 113.242 15.9668 112.68 15.5918C112.117 15.2168 111.379 15.0293 110.465 15.0293H106.299L106.334 12.3047H111.959L112.68 13.2891C113.734 13.3945 114.619 13.7461 115.334 14.3438C116.061 14.9297 116.605 15.6797 116.969 16.5938C117.344 17.5078 117.531 18.5156 117.531 19.6172C117.531 21.2109 117.232 22.5586 116.635 23.6602C116.049 24.75 115.217 25.582 114.139 26.1562C113.061 26.7188 111.795 27 110.342 27ZM131.26 23.748V13.4297C131.26 12.6797 131.143 12.0762 130.908 11.6191C130.686 11.1621 130.346 10.8281 129.889 10.6172C129.443 10.4062 128.881 10.3008 128.201 10.3008C127.545 10.3008 126.977 10.4355 126.496 10.7051C126.027 10.9746 125.664 11.332 125.406 11.7773C125.16 12.2227 125.037 12.7148 125.037 13.2539H121.926C121.926 12.5742 122.072 11.9004 122.365 11.2324C122.67 10.5645 123.104 9.96094 123.666 9.42188C124.229 8.87109 124.902 8.4375 125.688 8.12109C126.484 7.79297 127.375 7.62891 128.359 7.62891C129.531 7.62891 130.568 7.82227 131.471 8.20898C132.373 8.58398 133.082 9.19922 133.598 10.0547C134.113 10.9102 134.371 12.0469 134.371 13.4648V22.8516C134.371 23.4844 134.418 24.1582 134.512 24.873C134.617 25.5879 134.764 26.2031 134.951 26.7188V27H131.734C131.582 26.625 131.465 26.127 131.383 25.5059C131.301 24.873 131.26 24.2871 131.26 23.748ZM131.752 15.4688L131.787 17.7539H129.625C128.887 17.7539 128.213 17.8359 127.604 18C127.006 18.1641 126.49 18.4043 126.057 18.7207C125.623 19.0254 125.289 19.4062 125.055 19.8633C124.832 20.3203 124.721 20.8418 124.721 21.4277C124.721 22.1895 124.826 22.7988 125.037 23.2559C125.248 23.7012 125.564 24.0234 125.986 24.2227C126.408 24.4219 126.941 24.5215 127.586 24.5215C128.371 24.5215 129.062 24.3398 129.66 23.9766C130.258 23.6133 130.721 23.1738 131.049 22.6582C131.389 22.1426 131.547 21.6621 131.523 21.2168L132.209 22.6758C132.162 23.1328 132.01 23.6309 131.752 24.1699C131.506 24.6973 131.16 25.207 130.715 25.6992C130.27 26.1797 129.742 26.5781 129.133 26.8945C128.535 27.1992 127.861 27.3516 127.111 27.3516C126.01 27.3516 125.043 27.1406 124.211 26.7188C123.391 26.2969 122.752 25.6758 122.295 24.8555C121.838 24.0352 121.609 23.0215 121.609 21.8145C121.609 20.9004 121.768 20.0566 122.084 19.2832C122.4 18.5098 122.869 17.8418 123.49 17.2793C124.111 16.7051 124.891 16.2598 125.828 15.9434C126.777 15.627 127.873 15.4688 129.115 15.4688H131.752ZM142.316 12.041V27H139.205V7.98047H142.141L142.316 12.041ZM141.561 16.7695L140.295 16.7168C140.283 15.416 140.43 14.2148 140.734 13.1133C141.051 12 141.496 11.0332 142.07 10.2129C142.656 9.39258 143.354 8.75977 144.162 8.31445C144.971 7.85742 145.867 7.62891 146.852 7.62891C147.625 7.62891 148.328 7.75781 148.961 8.01562C149.594 8.26172 150.133 8.66016 150.578 9.21094C151.023 9.76172 151.363 10.4766 151.598 11.3555C151.844 12.2227 151.967 13.2832 151.967 14.5371V27H148.855V14.502C148.855 13.5059 148.744 12.709 148.521 12.1113C148.311 11.502 147.982 11.0625 147.537 10.793C147.104 10.5117 146.553 10.3711 145.885 10.3711C145.275 10.3711 144.707 10.541 144.18 10.8809C143.652 11.2207 143.189 11.6895 142.791 12.2871C142.404 12.8848 142.1 13.5703 141.877 14.3438C141.666 15.1055 141.561 15.9141 141.561 16.7695ZM159.771 0V27H156.66V0H159.771ZM169.422 7.98047L162.654 16.8574L158.471 21.6738L158.26 18.2109L161.143 14.2383L165.678 7.98047H169.422ZM166.574 27L161.23 17.9297L162.83 15.0293L170.195 27H166.574Z" fill="#1399F8"/>
</svg>
